<mxfile host="app.diagrams.net" modified="2020-07-07T15:34:53.953Z" agent="5.0 (X11)" etag="UpqPFG7Z5bwB-jWfG7Ce" version="13.3.9" type="github" pages="2">
  <diagram name="Page-1" id="74b105a0-9070-1c63-61bc-23e55f88626e">
    <mxGraphModel dx="1021" dy="591" grid="1" gridSize="10" guides="1" tooltips="1" connect="1" arrows="1" fold="1" page="1" pageScale="1.5" pageWidth="1169" pageHeight="826" background="none" math="0" shadow="0">
      <root>
        <mxCell id="0" style=";html=1;" />
        <mxCell id="1" style=";html=1;" parent="0" />
        <mxCell id="10b056a9c633e61c-18" style="edgeStyle=orthogonalEdgeStyle;rounded=0;html=1;endArrow=block;endFill=1;jettySize=auto;orthogonalLoop=1;strokeWidth=2;startArrow=none;startFill=0;" parent="1" source="10b056a9c633e61c-1" target="10b056a9c633e61c-2" edge="1">
          <mxGeometry relative="1" as="geometry" />
        </mxCell>
        <mxCell id="10b056a9c633e61c-1" value="Message Translator" style="strokeWidth=2;dashed=0;align=center;fontSize=12;shape=mxgraph.eip.message_translator;fillColor=#c0f5a9;verticalLabelPosition=bottom;verticalAlign=top;" parent="1" vertex="1">
          <mxGeometry x="382" y="590" width="150" height="90" as="geometry" />
        </mxCell>
        <mxCell id="10b056a9c633e61c-19" style="edgeStyle=orthogonalEdgeStyle;rounded=0;html=1;endArrow=block;endFill=1;jettySize=auto;orthogonalLoop=1;strokeWidth=2;startArrow=none;startFill=0;" parent="1" source="10b056a9c633e61c-2" target="10b056a9c633e61c-6" edge="1">
          <mxGeometry relative="1" as="geometry">
            <Array as="points">
              <mxPoint x="852" y="635" />
              <mxPoint x="852" y="440" />
            </Array>
          </mxGeometry>
        </mxCell>
        <mxCell id="10b056a9c633e61c-20" style="edgeStyle=orthogonalEdgeStyle;rounded=0;html=1;endArrow=block;endFill=1;jettySize=auto;orthogonalLoop=1;strokeWidth=2;startArrow=none;startFill=0;" parent="1" source="10b056a9c633e61c-2" target="10b056a9c633e61c-8" edge="1">
          <mxGeometry relative="1" as="geometry" />
        </mxCell>
        <mxCell id="10b056a9c633e61c-21" style="edgeStyle=orthogonalEdgeStyle;rounded=0;html=1;endArrow=block;endFill=1;jettySize=auto;orthogonalLoop=1;strokeWidth=2;startArrow=none;startFill=0;" parent="1" source="10b056a9c633e61c-2" target="10b056a9c633e61c-14" edge="1">
          <mxGeometry relative="1" as="geometry">
            <Array as="points">
              <mxPoint x="852" y="635" />
              <mxPoint x="852" y="885" />
            </Array>
          </mxGeometry>
        </mxCell>
        <mxCell id="10b056a9c633e61c-2" value="Recipient List" style="strokeWidth=2;dashed=0;align=center;fontSize=12;fillColor=#c0f5a9;verticalLabelPosition=bottom;verticalAlign=top;shape=mxgraph.eip.recipient_list;" parent="1" vertex="1">
          <mxGeometry x="632" y="590" width="150" height="90" as="geometry" />
        </mxCell>
        <mxCell id="10b056a9c633e61c-17" style="edgeStyle=orthogonalEdgeStyle;rounded=0;html=1;endArrow=block;endFill=1;jettySize=auto;orthogonalLoop=1;strokeWidth=2;startArrow=none;startFill=0;" parent="1" source="10b056a9c633e61c-4" target="10b056a9c633e61c-1" edge="1">
          <mxGeometry relative="1" as="geometry" />
        </mxCell>
        <mxCell id="10b056a9c633e61c-4" value="Message Endpoint" style="strokeWidth=2;dashed=0;align=center;fontSize=12;shape=rect;verticalLabelPosition=bottom;verticalAlign=top;fillColor=#c0f5a9" parent="1" vertex="1">
          <mxGeometry x="172" y="590" width="150" height="90" as="geometry" />
        </mxCell>
        <mxCell id="10b056a9c633e61c-5" value="" style="strokeWidth=1;dashed=0;align=center;fontSize=8;shape=rect;fillColor=#ffffff;strokeColor=#000000;" parent="10b056a9c633e61c-4" vertex="1">
          <mxGeometry x="85" y="25" width="40" height="40" as="geometry" />
        </mxCell>
        <mxCell id="10b056a9c633e61c-22" style="edgeStyle=orthogonalEdgeStyle;rounded=0;html=1;endArrow=block;endFill=1;jettySize=auto;orthogonalLoop=1;strokeWidth=2;startArrow=none;startFill=0;" parent="1" source="10b056a9c633e61c-6" target="10b056a9c633e61c-10" edge="1">
          <mxGeometry relative="1" as="geometry" />
        </mxCell>
        <mxCell id="10b056a9c633e61c-25" style="edgeStyle=orthogonalEdgeStyle;rounded=0;html=1;endArrow=block;endFill=1;jettySize=auto;orthogonalLoop=1;strokeWidth=2;startArrow=none;startFill=0;" parent="1" source="10b056a9c633e61c-6" target="10b056a9c633e61c-12" edge="1">
          <mxGeometry relative="1" as="geometry" />
        </mxCell>
        <mxCell id="10b056a9c633e61c-28" style="edgeStyle=orthogonalEdgeStyle;rounded=0;html=1;endArrow=block;endFill=1;jettySize=auto;orthogonalLoop=1;strokeWidth=2;startArrow=none;startFill=0;" parent="1" source="10b056a9c633e61c-10" target="10b056a9c633e61c-4" edge="1">
          <mxGeometry relative="1" as="geometry">
            <Array as="points">
              <mxPoint x="1267" y="310" />
              <mxPoint x="247" y="310" />
            </Array>
          </mxGeometry>
        </mxCell>
        <mxCell id="10b056a9c633e61c-6" value="Message Endpoint" style="strokeWidth=2;dashed=0;align=center;fontSize=12;shape=rect;verticalLabelPosition=top;verticalAlign=bottom;fillColor=#c0f5a9;labelPosition=center;" parent="1" vertex="1">
          <mxGeometry x="922" y="370" width="150" height="90" as="geometry" />
        </mxCell>
        <mxCell id="10b056a9c633e61c-7" value="" style="strokeWidth=1;dashed=0;align=center;fontSize=8;shape=rect;fillColor=#ffffff;strokeColor=#000000;" parent="10b056a9c633e61c-6" vertex="1">
          <mxGeometry x="85" y="25" width="40" height="40" as="geometry" />
        </mxCell>
        <mxCell id="10b056a9c633e61c-23" style="edgeStyle=orthogonalEdgeStyle;rounded=0;html=1;endArrow=block;endFill=1;jettySize=auto;orthogonalLoop=1;strokeWidth=2;startArrow=none;startFill=0;" parent="1" source="10b056a9c633e61c-8" target="10b056a9c633e61c-11" edge="1">
          <mxGeometry relative="1" as="geometry" />
        </mxCell>
        <mxCell id="10b056a9c633e61c-8" value="Message Endpoint" style="strokeWidth=2;dashed=0;align=center;fontSize=12;shape=rect;verticalLabelPosition=bottom;verticalAlign=top;fillColor=#c0f5a9" parent="1" vertex="1">
          <mxGeometry x="922" y="670" width="150" height="90" as="geometry" />
        </mxCell>
        <mxCell id="10b056a9c633e61c-9" value="" style="strokeWidth=1;dashed=0;align=center;fontSize=8;shape=rect" parent="10b056a9c633e61c-8" vertex="1">
          <mxGeometry x="85" y="25" width="40" height="40" as="geometry" />
        </mxCell>
        <mxCell id="10b056a9c633e61c-10" value="Message Translator" style="strokeWidth=2;dashed=0;align=center;fontSize=12;shape=mxgraph.eip.message_translator;fillColor=#c0f5a9;verticalLabelPosition=bottom;verticalAlign=top;" parent="1" vertex="1">
          <mxGeometry x="1192" y="370" width="150" height="90" as="geometry" />
        </mxCell>
        <mxCell id="10b056a9c633e61c-11" value="Message Translator" style="strokeWidth=2;dashed=0;align=center;fontSize=12;shape=mxgraph.eip.message_translator;fillColor=#c0f5a9;verticalLabelPosition=bottom;verticalAlign=top;" parent="1" vertex="1">
          <mxGeometry x="1192" y="670" width="150" height="90" as="geometry" />
        </mxCell>
        <mxCell id="10b056a9c633e61c-26" style="edgeStyle=orthogonalEdgeStyle;rounded=0;html=1;endArrow=block;endFill=1;jettySize=auto;orthogonalLoop=1;strokeWidth=2;startArrow=none;startFill=0;" parent="1" source="10b056a9c633e61c-12" target="10b056a9c633e61c-13" edge="1">
          <mxGeometry relative="1" as="geometry" />
        </mxCell>
        <mxCell id="10b056a9c633e61c-12" value="Deqad Letter Channel" style="strokeWidth=1;dashed=0;align=center;html=1;fontSize=8;shape=mxgraph.eip.deadLetterChannel;verticalLabelPosition=bottom;labelBackgroundColor=#ffffff;verticalAlign=top;" parent="1" vertex="1">
          <mxGeometry x="947" y="550" width="100" height="20" as="geometry" />
        </mxCell>
        <mxCell id="10b056a9c633e61c-27" style="edgeStyle=orthogonalEdgeStyle;rounded=0;html=1;endArrow=block;endFill=1;jettySize=auto;orthogonalLoop=1;strokeWidth=2;startArrow=none;startFill=0;" parent="1" source="10b056a9c633e61c-13" target="10b056a9c633e61c-15" edge="1">
          <mxGeometry relative="1" as="geometry" />
        </mxCell>
        <mxCell id="10b056a9c633e61c-13" value="Envelope Wrapper" style="strokeWidth=2;dashed=0;align=center;fontSize=12;fillColor=#c0f5a9;verticalLabelPosition=bottom;verticalAlign=top;shape=mxgraph.eip.envelope_wrapper;" parent="1" vertex="1">
          <mxGeometry x="1192" y="515" width="150" height="90" as="geometry" />
        </mxCell>
        <mxCell id="10b056a9c633e61c-24" style="edgeStyle=orthogonalEdgeStyle;rounded=0;html=1;endArrow=block;endFill=1;jettySize=auto;orthogonalLoop=1;strokeWidth=2;startArrow=none;startFill=0;" parent="1" source="10b056a9c633e61c-14" target="10b056a9c633e61c-16" edge="1">
          <mxGeometry relative="1" as="geometry" />
        </mxCell>
        <mxCell id="10b056a9c633e61c-14" value="" style="strokeWidth=2;dashed=0;align=center;fontSize=12;fillColor=#c0f5a9;verticalLabelPosition=bottom;verticalAlign=top;shape=mxgraph.eip.composed_message_processor;" parent="1" vertex="1">
          <mxGeometry x="922" y="840" width="150" height="90" as="geometry" />
        </mxCell>
        <mxCell id="10b056a9c633e61c-29" style="edgeStyle=orthogonalEdgeStyle;rounded=0;html=1;endArrow=block;endFill=1;jettySize=auto;orthogonalLoop=1;fontSize=12;strokeWidth=2;startArrow=none;startFill=0;" parent="1" source="10b056a9c633e61c-15" target="10b056a9c633e61c-4" edge="1">
          <mxGeometry relative="1" as="geometry">
            <Array as="points">
              <mxPoint x="1507" y="310" />
              <mxPoint x="247" y="310" />
            </Array>
          </mxGeometry>
        </mxCell>
        <mxCell id="10b056a9c633e61c-15" value="Message Store" style="strokeWidth=2;dashed=0;align=center;fontSize=12;verticalLabelPosition=bottom;verticalAlign=top;shape=mxgraph.eip.message_store;fillColor=#c0f5a9" parent="1" vertex="1">
          <mxGeometry x="1432" y="515" width="150" height="90" as="geometry" />
        </mxCell>
        <mxCell id="10b056a9c633e61c-16" value="Message Translator" style="strokeWidth=2;dashed=0;align=center;fontSize=12;shape=mxgraph.eip.message_translator;fillColor=#c0f5a9;verticalLabelPosition=bottom;verticalAlign=top;" parent="1" vertex="1">
          <mxGeometry x="1192" y="840" width="150" height="90" as="geometry" />
        </mxCell>
        <mxCell id="10b056a9c633e61c-30" value="Title" style="text;strokeColor=none;fillColor=none;html=1;fontSize=24;fontStyle=1;verticalAlign=middle;align=center;" parent="1" vertex="1">
          <mxGeometry x="80" y="40" width="1590" height="40" as="geometry" />
        </mxCell>
      </root>
    </mxGraphModel>
  </diagram>
  <diagram id="hYSIYH8HmmFJAMKX16kn" name="Page-2">
    <mxGraphModel dx="1736" dy="1004" grid="1" gridSize="10" guides="1" tooltips="1" connect="1" arrows="1" fold="1" page="1" pageScale="1" pageWidth="850" pageHeight="1100" math="0" shadow="0">
      <root>
        <mxCell id="VxjinG6MLhSywhPL-MCP-0" />
        <mxCell id="VxjinG6MLhSywhPL-MCP-1" parent="VxjinG6MLhSywhPL-MCP-0" />
        <mxCell id="VxjinG6MLhSywhPL-MCP-12" style="edgeStyle=orthogonalEdgeStyle;rounded=0;orthogonalLoop=1;jettySize=auto;html=1;exitX=0.5;exitY=1;exitDx=0;exitDy=0;" edge="1" parent="VxjinG6MLhSywhPL-MCP-1" source="VxjinG6MLhSywhPL-MCP-2" target="VxjinG6MLhSywhPL-MCP-9">
          <mxGeometry relative="1" as="geometry" />
        </mxCell>
        <mxCell id="VxjinG6MLhSywhPL-MCP-13" style="edgeStyle=orthogonalEdgeStyle;rounded=0;orthogonalLoop=1;jettySize=auto;html=1;exitX=0.5;exitY=1;exitDx=0;exitDy=0;entryX=0.5;entryY=0;entryDx=0;entryDy=0;" edge="1" parent="VxjinG6MLhSywhPL-MCP-1" source="VxjinG6MLhSywhPL-MCP-2" target="VxjinG6MLhSywhPL-MCP-10">
          <mxGeometry relative="1" as="geometry" />
        </mxCell>
        <mxCell id="VxjinG6MLhSywhPL-MCP-2" value="Dependency Structure" style="text;fillColor=none;html=1;fontSize=24;fontStyle=1;verticalAlign=middle;align=center;strokeColor=#000000;" vertex="1" parent="VxjinG6MLhSywhPL-MCP-1">
          <mxGeometry x="710" y="70" width="280" height="40" as="geometry" />
        </mxCell>
        <mxCell id="VxjinG6MLhSywhPL-MCP-9" value="&lt;h1&gt;Backend&lt;/h1&gt;" style="text;html=1;fillColor=none;spacing=5;spacingTop=-20;whiteSpace=wrap;overflow=hidden;rounded=0;strokeColor=#000000;" vertex="1" parent="VxjinG6MLhSywhPL-MCP-1">
          <mxGeometry x="550" y="250" width="110" height="30" as="geometry" />
        </mxCell>
        <mxCell id="VxjinG6MLhSywhPL-MCP-18" style="rounded=0;orthogonalLoop=1;jettySize=auto;html=1;edgeStyle=orthogonalEdgeStyle;" edge="1" parent="VxjinG6MLhSywhPL-MCP-1" source="VxjinG6MLhSywhPL-MCP-10" target="VxjinG6MLhSywhPL-MCP-15">
          <mxGeometry relative="1" as="geometry" />
        </mxCell>
        <mxCell id="VxjinG6MLhSywhPL-MCP-19" style="edgeStyle=orthogonalEdgeStyle;rounded=0;orthogonalLoop=1;jettySize=auto;html=1;entryX=0.5;entryY=0;entryDx=0;entryDy=0;" edge="1" parent="VxjinG6MLhSywhPL-MCP-1" source="VxjinG6MLhSywhPL-MCP-10" target="VxjinG6MLhSywhPL-MCP-17">
          <mxGeometry relative="1" as="geometry" />
        </mxCell>
        <mxCell id="VxjinG6MLhSywhPL-MCP-29" value="" style="edgeStyle=orthogonalEdgeStyle;rounded=0;orthogonalLoop=1;jettySize=auto;html=1;" edge="1" parent="VxjinG6MLhSywhPL-MCP-1" source="VxjinG6MLhSywhPL-MCP-10" target="VxjinG6MLhSywhPL-MCP-16">
          <mxGeometry relative="1" as="geometry" />
        </mxCell>
        <mxCell id="VxjinG6MLhSywhPL-MCP-10" value="&lt;h1&gt;Frontend&lt;/h1&gt;" style="text;html=1;fillColor=none;spacing=5;spacingTop=-20;whiteSpace=wrap;overflow=hidden;rounded=0;strokeColor=#000000;" vertex="1" parent="VxjinG6MLhSywhPL-MCP-1">
          <mxGeometry x="1220" y="250" width="110" height="30" as="geometry" />
        </mxCell>
        <mxCell id="VxjinG6MLhSywhPL-MCP-11" value="" style="group;" vertex="1" connectable="0" parent="VxjinG6MLhSywhPL-MCP-1">
          <mxGeometry x="550" y="300" width="160" height="95" as="geometry" />
        </mxCell>
        <mxCell id="VxjinG6MLhSywhPL-MCP-5" value="" style="shape=internalStorage;whiteSpace=wrap;html=1;backgroundOutline=1;" vertex="1" parent="VxjinG6MLhSywhPL-MCP-11">
          <mxGeometry width="100" height="80" as="geometry" />
        </mxCell>
        <mxCell id="VxjinG6MLhSywhPL-MCP-6" value="Strapi Instance" style="text;html=1;fillColor=none;align=center;verticalAlign=middle;whiteSpace=wrap;rounded=0;" vertex="1" parent="VxjinG6MLhSywhPL-MCP-11">
          <mxGeometry x="20" y="40" width="70" height="20" as="geometry" />
        </mxCell>
        <mxCell id="VxjinG6MLhSywhPL-MCP-27" style="edgeStyle=orthogonalEdgeStyle;rounded=0;orthogonalLoop=1;jettySize=auto;html=1;entryX=0.5;entryY=0;entryDx=0;entryDy=0;" edge="1" parent="VxjinG6MLhSywhPL-MCP-1" source="VxjinG6MLhSywhPL-MCP-15" target="VxjinG6MLhSywhPL-MCP-22">
          <mxGeometry relative="1" as="geometry" />
        </mxCell>
        <mxCell id="VxjinG6MLhSywhPL-MCP-15" value="&lt;h1 align=&quot;center&quot;&gt;Courses&lt;br&gt;&lt;/h1&gt;&lt;div&gt;An index of all the courses the user is affiliated with.&lt;br&gt;&lt;b&gt;&lt;/b&gt;&lt;/div&gt;" style="text;html=1;fillColor=none;spacing=5;spacingTop=-20;whiteSpace=wrap;overflow=hidden;rounded=0;strokeColor=#000000;" vertex="1" parent="VxjinG6MLhSywhPL-MCP-1">
          <mxGeometry x="770" y="330" width="190" height="90" as="geometry" />
        </mxCell>
        <mxCell id="VxjinG6MLhSywhPL-MCP-41" value="" style="edgeStyle=orthogonalEdgeStyle;rounded=0;orthogonalLoop=1;jettySize=auto;html=1;startArrow=none;startFill=0;endArrow=classicThin;endFill=1;" edge="1" parent="VxjinG6MLhSywhPL-MCP-1" source="VxjinG6MLhSywhPL-MCP-16" target="VxjinG6MLhSywhPL-MCP-40">
          <mxGeometry relative="1" as="geometry" />
        </mxCell>
        <mxCell id="VxjinG6MLhSywhPL-MCP-16" value="&lt;h1 align=&quot;center&quot;&gt;Timetable&lt;/h1&gt;&lt;div&gt;A google calendar like list of commitments the user has for the day. These could be lectures, lab, tutorial or custom events&lt;br&gt;&lt;/div&gt;" style="text;html=1;fillColor=none;spacing=5;spacingTop=-20;whiteSpace=wrap;overflow=hidden;rounded=0;strokeColor=#000000;" vertex="1" parent="VxjinG6MLhSywhPL-MCP-1">
          <mxGeometry x="1180" y="330" width="190" height="120" as="geometry" />
        </mxCell>
        <mxCell id="VxjinG6MLhSywhPL-MCP-43" style="edgeStyle=orthogonalEdgeStyle;rounded=0;orthogonalLoop=1;jettySize=auto;html=1;exitX=1;exitY=0.5;exitDx=0;exitDy=0;entryX=0;entryY=0.5;entryDx=0;entryDy=0;dashed=1;startArrow=none;startFill=0;endArrow=none;endFill=0;" edge="1" parent="VxjinG6MLhSywhPL-MCP-1" source="VxjinG6MLhSywhPL-MCP-40" target="VxjinG6MLhSywhPL-MCP-17">
          <mxGeometry relative="1" as="geometry" />
        </mxCell>
        <mxCell id="VxjinG6MLhSywhPL-MCP-44" style="edgeStyle=orthogonalEdgeStyle;rounded=0;orthogonalLoop=1;jettySize=auto;html=1;exitX=0;exitY=0.5;exitDx=0;exitDy=0;entryX=1;entryY=0.5;entryDx=0;entryDy=0;dashed=1;startArrow=none;startFill=0;endArrow=none;endFill=0;" edge="1" parent="VxjinG6MLhSywhPL-MCP-1" source="VxjinG6MLhSywhPL-MCP-40" target="VxjinG6MLhSywhPL-MCP-23">
          <mxGeometry relative="1" as="geometry" />
        </mxCell>
        <mxCell id="VxjinG6MLhSywhPL-MCP-40" value="&lt;h1 align=&quot;center&quot;&gt;Event&lt;br&gt;&lt;/h1&gt;&lt;div&gt;Generic event data relevant to the calendar. Could include user notes on the event. Also links to a course page or notice event page if applicable&lt;br&gt;&lt;/div&gt;" style="text;html=1;fillColor=none;spacing=5;spacingTop=-20;whiteSpace=wrap;overflow=hidden;rounded=0;strokeColor=#000000;" vertex="1" parent="VxjinG6MLhSywhPL-MCP-1">
          <mxGeometry x="1180" y="530" width="190" height="120" as="geometry" />
        </mxCell>
        <mxCell id="VxjinG6MLhSywhPL-MCP-48" value="" style="edgeStyle=orthogonalEdgeStyle;rounded=0;orthogonalLoop=1;jettySize=auto;html=1;startArrow=none;startFill=0;endArrow=classicThin;endFill=1;" edge="1" parent="VxjinG6MLhSywhPL-MCP-1" source="VxjinG6MLhSywhPL-MCP-17" target="VxjinG6MLhSywhPL-MCP-47">
          <mxGeometry relative="1" as="geometry" />
        </mxCell>
        <mxCell id="VxjinG6MLhSywhPL-MCP-17" value="&lt;h1 align=&quot;center&quot;&gt;Notice&lt;/h1&gt;&lt;p&gt;Digital notice board. Similar in functionality to a subreddit&lt;br&gt;&lt;/p&gt;" style="text;html=1;fillColor=none;spacing=5;spacingTop=-20;whiteSpace=wrap;overflow=hidden;rounded=0;strokeColor=#000000;" vertex="1" parent="VxjinG6MLhSywhPL-MCP-1">
          <mxGeometry x="1510" y="330" width="190" height="100" as="geometry" />
        </mxCell>
        <mxCell id="VxjinG6MLhSywhPL-MCP-47" value="&lt;h1 align=&quot;center&quot;&gt;Comments&lt;/h1&gt;&lt;p&gt;Thread based comment section. Allow comments to be tagged to filter questions, etc&lt;br&gt;&lt;/p&gt;" style="text;html=1;fillColor=none;spacing=5;spacingTop=-20;whiteSpace=wrap;overflow=hidden;rounded=0;strokeColor=#000000;" vertex="1" parent="VxjinG6MLhSywhPL-MCP-1">
          <mxGeometry x="1510" y="530" width="190" height="120" as="geometry" />
        </mxCell>
        <mxCell id="VxjinG6MLhSywhPL-MCP-28" value="" style="edgeStyle=orthogonalEdgeStyle;rounded=0;orthogonalLoop=1;jettySize=auto;html=1;" edge="1" parent="VxjinG6MLhSywhPL-MCP-1" source="VxjinG6MLhSywhPL-MCP-22" target="VxjinG6MLhSywhPL-MCP-23">
          <mxGeometry relative="1" as="geometry" />
        </mxCell>
        <mxCell id="VxjinG6MLhSywhPL-MCP-34" style="edgeStyle=orthogonalEdgeStyle;rounded=0;orthogonalLoop=1;jettySize=auto;html=1;exitX=0.25;exitY=1;exitDx=0;exitDy=0;" edge="1" parent="VxjinG6MLhSywhPL-MCP-1" source="VxjinG6MLhSywhPL-MCP-22" target="VxjinG6MLhSywhPL-MCP-30">
          <mxGeometry relative="1" as="geometry" />
        </mxCell>
        <mxCell id="VxjinG6MLhSywhPL-MCP-22" value="&lt;h1 align=&quot;center&quot;&gt;Course&lt;br&gt;&lt;/h1&gt;&lt;div&gt;A dashboard for a particular course - notices, lectures, submissions&lt;br&gt;&lt;b&gt;&lt;/b&gt;&lt;/div&gt;" style="text;html=1;fillColor=none;spacing=5;spacingTop=-20;whiteSpace=wrap;overflow=hidden;rounded=0;strokeColor=#000000;" vertex="1" parent="VxjinG6MLhSywhPL-MCP-1">
          <mxGeometry x="765" y="470" width="200" height="100" as="geometry" />
        </mxCell>
        <mxCell id="VxjinG6MLhSywhPL-MCP-45" style="edgeStyle=orthogonalEdgeStyle;rounded=0;orthogonalLoop=1;jettySize=auto;html=1;startArrow=none;startFill=0;endArrow=classicThin;endFill=1;" edge="1" parent="VxjinG6MLhSywhPL-MCP-1" source="VxjinG6MLhSywhPL-MCP-23">
          <mxGeometry relative="1" as="geometry">
            <mxPoint x="865" y="770" as="targetPoint" />
          </mxGeometry>
        </mxCell>
        <mxCell id="VxjinG6MLhSywhPL-MCP-23" value="&lt;h1 align=&quot;center&quot;&gt;Lesson&lt;br&gt;&lt;/h1&gt;&lt;div&gt;Curated content that explains a concept related to the syllabus. Maybe text, video or lecture notes&lt;br&gt;&lt;/div&gt;" style="text;html=1;fillColor=none;spacing=5;spacingTop=-20;whiteSpace=wrap;overflow=hidden;rounded=0;strokeColor=#000000;" vertex="1" parent="VxjinG6MLhSywhPL-MCP-1">
          <mxGeometry x="767.5" y="610" width="195" height="100" as="geometry" />
        </mxCell>
        <mxCell id="VxjinG6MLhSywhPL-MCP-37" style="rounded=0;orthogonalLoop=1;jettySize=auto;html=1;exitX=0;exitY=0.5;exitDx=0;exitDy=0;entryX=1;entryY=0.5;entryDx=0;entryDy=0;edgeStyle=orthogonalEdgeStyle;startArrow=box;startFill=0;endArrow=block;endFill=0;dashed=1;" edge="1" parent="VxjinG6MLhSywhPL-MCP-1" source="VxjinG6MLhSywhPL-MCP-30" target="VxjinG6MLhSywhPL-MCP-35">
          <mxGeometry relative="1" as="geometry" />
        </mxCell>
        <mxCell id="VxjinG6MLhSywhPL-MCP-30" value="&lt;h1 align=&quot;center&quot;&gt;Lecturer&lt;br&gt;&lt;/h1&gt;&lt;div align=&quot;left&quot;&gt;Profile page for lecturers. Extends from a profile page view&lt;br&gt;&lt;/div&gt;" style="text;html=1;fillColor=none;spacing=5;spacingTop=-20;whiteSpace=wrap;overflow=hidden;rounded=0;strokeColor=#000000;" vertex="1" parent="VxjinG6MLhSywhPL-MCP-1">
          <mxGeometry x="525" y="610" width="195" height="100" as="geometry" />
        </mxCell>
        <mxCell id="VxjinG6MLhSywhPL-MCP-35" value="&lt;h1 align=&quot;center&quot;&gt;Profile&lt;br&gt;&lt;/h1&gt;&lt;div align=&quot;left&quot;&gt;Generic profile page. Has options for multiple types of profiles. Which fields are available depends on the account type&lt;br&gt;&lt;/div&gt;" style="text;html=1;fillColor=none;spacing=5;spacingTop=-20;whiteSpace=wrap;overflow=hidden;rounded=0;strokeColor=#000000;" vertex="1" parent="VxjinG6MLhSywhPL-MCP-1">
          <mxGeometry x="190" y="605" width="195" height="110" as="geometry" />
        </mxCell>
        <mxCell id="VxjinG6MLhSywhPL-MCP-46" value="&lt;h1&gt;Comments&lt;br&gt;&lt;/h1&gt;&lt;p&gt;Thread based comment sections. Allow comment tags to filter questions, comments&lt;br&gt;&lt;/p&gt;" style="text;html=1;fillColor=none;spacing=5;spacingTop=-20;whiteSpace=wrap;overflow=hidden;rounded=0;align=left;strokeColor=#000000;" vertex="1" parent="VxjinG6MLhSywhPL-MCP-1">
          <mxGeometry x="770" y="770" width="190" height="120" as="geometry" />
        </mxCell>
        <mxCell id="VxjinG6MLhSywhPL-MCP-49" style="edgeStyle=orthogonalEdgeStyle;rounded=0;orthogonalLoop=1;jettySize=auto;html=1;exitX=0.5;exitY=1;exitDx=0;exitDy=0;startArrow=none;startFill=0;endArrow=classicThin;endFill=1;" edge="1" parent="VxjinG6MLhSywhPL-MCP-1" source="VxjinG6MLhSywhPL-MCP-17" target="VxjinG6MLhSywhPL-MCP-17">
          <mxGeometry relative="1" as="geometry" />
        </mxCell>
      </root>
    </mxGraphModel>
  </diagram>
</mxfile>
